<svg width="200" height="200" xmlns="http://www.w3.org/2000/svg">
  <rect width="200" height="200" fill="white"/>
  <!-- QR Code Pattern -->
  <rect x="10" y="10" width="20" height="20" fill="black"/>
  <rect x="40" y="10" width="20" height="20" fill="black"/>
  <rect x="70" y="10" width="20" height="20" fill="black"/>
  <rect x="100" y="10" width="20" height="20" fill="black"/>
  <rect x="130" y="10" width="20" height="20" fill="black"/>
  <rect x="160" y="10" width="20" height="20" fill="black"/>
  
  <rect x="10" y="40" width="20" height="20" fill="black"/>
  <rect x="40" y="40" width="20" height="20" fill="black"/>
  <rect x="70" y="40" width="20" height="20" fill="black"/>
  <rect x="100" y="40" width="20" height="20" fill="black"/>
  <rect x="130" y="40" width="20" height="20" fill="black"/>
  <rect x="160" y="40" width="20" height="20" fill="black"/>
  
  <rect x="10" y="70" width="20" height="20" fill="black"/>
  <rect x="40" y="70" width="20" height="20" fill="black"/>
  <rect x="70" y="70" width="20" height="20" fill="black"/>
  <rect x="100" y="70" width="20" height="20" fill="black"/>
  <rect x="130" y="70" width="20" height="20" fill="black"/>
  <rect x="160" y="70" width="20" height="20" fill="black"/>
  
  <rect x="10" y="100" width="20" height="20" fill="black"/>
  <rect x="40" y="100" width="20" height="20" fill="black"/>
  <rect x="70" y="100" width="20" height="20" fill="black"/>
  <rect x="100" y="100" width="20" height="20" fill="black"/>
  <rect x="130" y="100" width="20" height="20" fill="black"/>
  <rect x="160" y="100" width="20" height="20" fill="black"/>
  
  <rect x="10" y="130" width="20" height="20" fill="black"/>
  <rect x="40" y="130" width="20" height="20" fill="black"/>
  <rect x="70" y="130" width="20" height="20" fill="black"/>
  <rect x="100" y="130" width="20" height="20" fill="black"/>
  <rect x="130" y="130" width="20" height="20" fill="black"/>
  <rect x="160" y="130" width="20" height="20" fill="black"/>
  
  <rect x="10" y="160" width="20" height="20" fill="black"/>
  <rect x="40" y="160" width="20" height="20" fill="black"/>
  <rect x="70" y="160" width="20" height="20" fill="black"/>
  <rect x="100" y="160" width="20" height="20" fill="black"/>
  <rect x="130" y="160" width="20" height="20" fill="black"/>
  <rect x="160" y="160" width="20" height="20" fill="black"/>
  
  <!-- Corner markers -->
  <rect x="20" y="20" width="10" height="10" fill="white"/>
  <rect x="170" y="20" width="10" height="10" fill="white"/>
  <rect x="20" y="170" width="10" height="10" fill="white"/>
</svg>

